<mxfile host="app.diagrams.net" modified="2024-06-05T09:32:36.357Z" agent="Mozilla/5.0 (Windows NT 10.0; Win64; x64) AppleWebKit/537.36 (KHTML, like Gecko) Chrome/125.0.0.0 Safari/537.36 Edg/125.0.0.0" etag="qWg0breIZOc1tBtzmR70" version="24.4.13" type="github">
  <diagram name="第 1 页" id="PziBzYLAJ6Q8LsWI3Y3L">
    <mxGraphModel dx="1055" dy="599" grid="0" gridSize="10" guides="1" tooltips="1" connect="1" arrows="1" fold="1" page="1" pageScale="1" pageWidth="827" pageHeight="1169" math="0" shadow="0">
      <root>
        <mxCell id="0" />
        <mxCell id="1" parent="0" />
        <mxCell id="OpBf-z5Hi3uhepDsuIo--1" value="&lt;font style=&quot;font-size: 20px;&quot;&gt;技术进步&lt;/font&gt;&lt;div&gt;&lt;font style=&quot;font-size: 20px;&quot;&gt;与模型创新&lt;/font&gt;&lt;/div&gt;" style="shape=mxgraph.basic.diag_round_rect;dx=37;flipH=1;html=1;fillColor=#10739E;strokeColor=none;shadow=0;fontSize=12;fontColor=#FFFFFF;align=center;fontStyle=0;whiteSpace=wrap;strokeWidth=8;" vertex="1" parent="1">
          <mxGeometry x="260" y="140" width="150" height="150" as="geometry" />
        </mxCell>
        <mxCell id="OpBf-z5Hi3uhepDsuIo--2" value="&lt;font style=&quot;font-size: 20px;&quot;&gt;应用场景的&lt;/font&gt;&lt;div style=&quot;font-size: 20px;&quot;&gt;&lt;font style=&quot;font-size: 20px;&quot;&gt;扩展与深化&lt;/font&gt;&lt;/div&gt;" style="shape=mxgraph.basic.diag_round_rect;dx=37;html=1;fillColor=#F2931E;strokeColor=none;shadow=0;fontSize=12;fontColor=#FFFFFF;align=center;fontStyle=0;whiteSpace=wrap;strokeWidth=8;" vertex="1" parent="1">
          <mxGeometry x="420" y="140" width="150" height="150" as="geometry" />
        </mxCell>
        <mxCell id="OpBf-z5Hi3uhepDsuIo--3" value="&lt;font style=&quot;font-size: 20px;&quot;&gt;数据集和语&lt;/font&gt;&lt;div style=&quot;font-size: 20px;&quot;&gt;&lt;font style=&quot;font-size: 20px;&quot;&gt;料&lt;span style=&quot;background-color: initial;&quot;&gt;库的丰富性&lt;/span&gt;&lt;/font&gt;&lt;/div&gt;" style="shape=mxgraph.basic.diag_round_rect;dx=37;flipH=1;flipV=1;html=1;fillColor=#AE4132;strokeColor=none;shadow=0;fontSize=12;fontColor=#FFFFFF;align=center;fontStyle=0;whiteSpace=wrap;strokeWidth=8;" vertex="1" parent="1">
          <mxGeometry x="260" y="300" width="150" height="150" as="geometry" />
        </mxCell>
        <mxCell id="OpBf-z5Hi3uhepDsuIo--4" value="&lt;font style=&quot;font-size: 20px;&quot;&gt;市场规模&lt;/font&gt;&lt;div style=&quot;font-size: 20px;&quot;&gt;&lt;font style=&quot;font-size: 20px;&quot;&gt;与增长势头&lt;/font&gt;&lt;/div&gt;" style="shape=mxgraph.basic.diag_round_rect;dx=37;flipV=1;html=1;fillColor=#23445D;strokeColor=none;shadow=0;fontSize=12;fontColor=#FFFFFF;align=center;fontStyle=0;whiteSpace=wrap;strokeWidth=8;" vertex="1" parent="1">
          <mxGeometry x="420" y="300" width="150" height="150" as="geometry" />
        </mxCell>
      </root>
    </mxGraphModel>
  </diagram>
</mxfile>
